<svg id="Capa_1" data-name="Capa 1" xmlns="http://www.w3.org/2000/svg" viewBox="0 0 1080 1080"><defs><style>.cls-1{fill:#fff;}.cls-2{fill:#636363;}</style></defs><path d="M323.35,661.29l19-94.93h41.23q14.91,0,25.56,4.88A37.33,37.33,0,0,1,425.47,585q5.7,8.88,5.7,21.22A57.1,57.1,0,0,1,426.83,629a50.45,50.45,0,0,1-12.21,17.35,53.74,53.74,0,0,1-18.71,11.12,71.09,71.09,0,0,1-24,3.87Zm31.19-21.43h18.18q10.17,0,17.08-4.2a27.72,27.72,0,0,0,10.58-11.46A35.77,35.77,0,0,0,404,607.86,21,21,0,0,0,401.4,597a17,17,0,0,0-7.87-6.85,31.28,31.28,0,0,0-12.95-2.37H364.85Z"/><path d="M472.26,662.51q-11.81,0-20.55-4.14a32.21,32.21,0,0,1-13.63-11.66A31.85,31.85,0,0,1,433.2,629a42.45,42.45,0,0,1,5.56-21.76,40,40,0,0,1,15.6-15.12q10-5.57,23.32-5.56,11.25,0,19.33,4.06A30.13,30.13,0,0,1,509.48,602a31.85,31.85,0,0,1,4.41,16.88,46.39,46.39,0,0,1-.41,6.24q-.4,3-1.08,5.83h-59l2.44-13.56h44.61l-10.71,3.93a15.58,15.58,0,0,0-.34-8.88,11,11,0,0,0-4.74-5.56,15.89,15.89,0,0,0-8.21-2A16.16,16.16,0,0,0,466.22,608a18.55,18.55,0,0,0-6,8.48,33.42,33.42,0,0,0-2,11.59q0,7.61,4.2,11.19t12.61,3.6a30.07,30.07,0,0,0,9.57-1.56,26.06,26.06,0,0,0,8.2-4.41L503.58,653a44,44,0,0,1-15,7.32A62.54,62.54,0,0,1,472.26,662.51Z"/><path d="M516.33,613.26l3.93-18h53.16l-3.79,18Zm.54,48,14.78-68.76a33.08,33.08,0,0,1,11.26-19q8.67-7.2,23.33-7.2a53.47,53.47,0,0,1,9.9.88A25,25,0,0,1,584,570l-9.9,16.82a14.52,14.52,0,0,0-7.59-2,9.46,9.46,0,0,0-6.72,2.22q-2.37,2.21-3.45,6.89l-1.09,5.18-1.36,9.6-11.25,52.59Z"/><path d="M609.69,662.51a47.61,47.61,0,0,1-20.55-4.14,32.21,32.21,0,0,1-13.63-11.66,31.85,31.85,0,0,1-4.88-17.7,42.45,42.45,0,0,1,5.56-21.76,40.09,40.09,0,0,1,15.6-15.12q10-5.57,23.32-5.56,11.26,0,19.33,4.06A30.1,30.1,0,0,1,646.92,602a31.94,31.94,0,0,1,4.4,16.88,46.42,46.42,0,0,1-.4,6.24q-.42,3-1.09,5.83h-59l2.44-13.56H637.9l-10.72,3.93a15.5,15.5,0,0,0-.34-8.88,11,11,0,0,0-4.74-5.56,15.89,15.89,0,0,0-8.21-2A16.16,16.16,0,0,0,603.65,608a18.61,18.61,0,0,0-6,8.48,33.42,33.42,0,0,0-2,11.59q0,7.61,4.21,11.19t12.61,3.6a30.06,30.06,0,0,0,9.56-1.56,26,26,0,0,0,8.2-4.41L641,653a44,44,0,0,1-15,7.32A62.54,62.54,0,0,1,609.69,662.51Z"/><path d="M711.94,586.57q9.36,0,15.87,3.86a21.39,21.39,0,0,1,9.29,11.39q2.77,7.53.47,18.79l-8.13,40.68H703.67l7.59-38.24q1.5-7-.88-10.85t-8.74-3.8a15.77,15.77,0,0,0-11,4.07q-4.47,4.06-6.24,12.47l-7.32,36.35H651.32L666,587.79h24.41l-4.2,20.61-3.26-6A32.46,32.46,0,0,1,696,590.36,36,36,0,0,1,711.94,586.57Z"/><path d="M773.18,662.51a30.86,30.86,0,0,1-26.58-15.32q-4.47-7.47-4.48-18.18a44.89,44.89,0,0,1,3.12-17,41.43,41.43,0,0,1,8.61-13.42,39.88,39.88,0,0,1,12.75-8.89,38.26,38.26,0,0,1,15.53-3.18,34,34,0,0,1,14,2.71,20,20,0,0,1,9.42,8.75q3.39,6,3.39,15.79a72.79,72.79,0,0,1-2.3,18.52,51,51,0,0,1-6.85,15.52,34.25,34.25,0,0,1-11.26,10.72A29.89,29.89,0,0,1,773.18,662.51Zm9-20.75a16.06,16.06,0,0,0,9.15-2.58,17.7,17.7,0,0,0,6.11-7.18,24.33,24.33,0,0,0,2.23-10.72q0-6.37-3.66-10.24t-10.17-3.86a16,16,0,0,0-9,2.64,18,18,0,0,0-6.24,7.26,24.26,24.26,0,0,0-2.23,10.71q0,6.38,3.66,10.17T782.13,641.76ZM793,661.29,795.56,649l4.74-24.28,3.39-24.27,8-34h25.77l-20.07,94.93Z"/><path d="M872,662.51a47.61,47.61,0,0,1-20.55-4.14,32.21,32.21,0,0,1-13.63-11.66A31.85,31.85,0,0,1,833,629a42.45,42.45,0,0,1,5.56-21.76,40.09,40.09,0,0,1,15.6-15.12q10-5.57,23.32-5.56,11.26,0,19.33,4.06A30.1,30.1,0,0,1,909.27,602a31.94,31.94,0,0,1,4.4,16.88,46.42,46.42,0,0,1-.4,6.24c-.27,2-.64,3.93-1.09,5.83h-59l2.44-13.56h44.62l-10.72,3.93a15.5,15.5,0,0,0-.34-8.88,11,11,0,0,0-4.74-5.56,15.89,15.89,0,0,0-8.21-2A16.16,16.16,0,0,0,866,608a18.61,18.61,0,0,0-6,8.48,33.42,33.42,0,0,0-2,11.59q0,7.61,4.21,11.19t12.61,3.6a30.06,30.06,0,0,0,9.56-1.56,26,26,0,0,0,8.2-4.41L903.37,653a44,44,0,0,1-15,7.32A62.54,62.54,0,0,1,872,662.51Z"/><path d="M913.67,661.29l14.65-73.5h24.41l-4.2,20.88-2.44-6Q951,593.9,959,590.23a44.58,44.58,0,0,1,18.71-3.66l-4.47,23.19a25.38,25.38,0,0,0-3-.34c-.9,0-1.85-.07-2.84-.07q-8.42,0-13.77,4t-7.12,13.22l-7,34.72Z"/><path d="M999.11,662.51a78.15,78.15,0,0,1-18.44-2.1q-8.68-2.1-13.43-5.09l9.36-18a41.56,41.56,0,0,0,12.07,5,54,54,0,0,0,13.42,1.77q6.38,0,9.09-1.43t2.71-3.86c0-1.45-.93-2.51-2.78-3.19a38.19,38.19,0,0,0-7.12-1.69c-2.89-.46-5.94-1-9.15-1.77a44.36,44.36,0,0,1-9.16-3.12,18.51,18.51,0,0,1-7.12-5.76q-2.77-3.74-2.78-10a21.81,21.81,0,0,1,5.16-14.78,31.1,31.1,0,0,1,14-9,62.61,62.61,0,0,1,20-3,75.62,75.62,0,0,1,15.19,1.49,47.63,47.63,0,0,1,12.74,4.34l-9.08,18a35.18,35.18,0,0,0-11.12-4.4,54.1,54.1,0,0,0-10.72-1.16c-4.25,0-7.28.55-9.08,1.63s-2.72,2.4-2.72,3.93c0,1.36.93,2.42,2.78,3.19a34.21,34.21,0,0,0,7.06,1.9c2.84.5,5.9,1.08,9.15,1.76a40.49,40.49,0,0,1,9.15,3.05,19,19,0,0,1,7.06,5.7q2.77,3.66,2.78,9.9a21.51,21.51,0,0,1-5.22,14.65,31.69,31.69,0,0,1-14,8.95A61.82,61.82,0,0,1,999.11,662.51Z"/><path d="M369.73,555.49q-15.59,0-27.15-5.68A42.26,42.26,0,0,1,324.74,534a43.42,43.42,0,0,1-6.26-23.37,63.07,63.07,0,0,1,4.66-24.46,57.76,57.76,0,0,1,13.1-19.44A58.83,58.83,0,0,1,356.41,454a71.72,71.72,0,0,1,26-4.51,60.07,60.07,0,0,1,25,4.95,34.72,34.72,0,0,1,16.31,14.27l-20.82,16.6a23.84,23.84,0,0,0-9.1-8.88,27.42,27.42,0,0,0-13.32-3.06A33.41,33.41,0,0,0,367,476a30.1,30.1,0,0,0-10.41,7.42,33.25,33.25,0,0,0-6.7,11.29,41.06,41.06,0,0,0-2.33,14.05,23.57,23.57,0,0,0,3,12,20.19,20.19,0,0,0,8.59,8,29.22,29.22,0,0,0,13.33,2.84,32.46,32.46,0,0,0,13.17-2.77,33.06,33.06,0,0,0,11.73-9l17,16.74a48,48,0,0,1-19.8,14.63A69,69,0,0,1,369.73,555.49Z"/><path d="M458,555.49q-12.53,0-21.84-4.56a34.26,34.26,0,0,1-14.42-12.7,35.15,35.15,0,0,1-5.1-19,44.65,44.65,0,0,1,6.27-23.58,45.19,45.19,0,0,1,17.18-16.38,51,51,0,0,1,25-6q12.67,0,21.91,4.48a34.13,34.13,0,0,1,14.35,12.56,35.13,35.13,0,0,1,5.09,19.1A44.58,44.58,0,0,1,483,549.47,51.05,51.05,0,0,1,458,555.49Zm1.6-22.18a16.93,16.93,0,0,0,9.75-2.87,19.41,19.41,0,0,0,6.63-7.86,26.85,26.85,0,0,0,2.4-11.75,16.14,16.14,0,0,0-3.86-11q-3.86-4.41-11-4.41a17.32,17.32,0,0,0-9.76,2.8,18.82,18.82,0,0,0-6.62,7.86,27.32,27.32,0,0,0-2.4,11.82q0,7.05,3.93,11.24T459.57,533.31Z"/><path d="M543.73,554.76a33.15,33.15,0,0,1-28.54-16.45q-4.82-8-4.81-19.51a48.24,48.24,0,0,1,3.35-18.2A44.49,44.49,0,0,1,523,486.18a42.77,42.77,0,0,1,13.68-9.54,41,41,0,0,1,16.68-3.42,36.5,36.5,0,0,1,15.07,2.91,21.65,21.65,0,0,1,10.12,9.4q3.63,6.48,3.64,17a77.66,77.66,0,0,1-2.48,19.87A54.93,54.93,0,0,1,572.34,539a37,37,0,0,1-12.09,11.5A32.1,32.1,0,0,1,543.73,554.76Zm9.61-22.28a17.3,17.3,0,0,0,9.82-2.76,19,19,0,0,0,6.56-7.72,26.09,26.09,0,0,0,2.4-11.5q0-6.84-3.93-11t-10.92-4.15a17.18,17.18,0,0,0-9.68,2.84,19.11,19.11,0,0,0-6.7,7.79,26.1,26.1,0,0,0-2.41,11.51q0,6.84,3.94,10.92T553.34,532.48Zm11.64,21,2.77-13.25,5.1-26.06,3.64-26.07,12.37-38.56h27.67L591.19,553.45Z"/><path d="M650.27,555.16q-12.67,0-22.06-4.44a34.63,34.63,0,0,1-14.63-12.52,34.13,34.13,0,0,1-5.24-19,45.56,45.56,0,0,1,6-23.37,43.06,43.06,0,0,1,16.74-16.23q10.77-6,25-6,12.09,0,20.75,4.37a32.22,32.22,0,0,1,13.4,12.16A34.23,34.23,0,0,1,695,508.27a48.13,48.13,0,0,1-.44,6.7c-.29,2.14-.68,4.22-1.16,6.26H630l2.62-14.56h47.91l-11.51,4.22q1.17-5.67-.36-9.53a11.83,11.83,0,0,0-5.1-6,17,17,0,0,0-8.81-2.11,17.36,17.36,0,0,0-11,3.34,20,20,0,0,0-6.41,9.11,36,36,0,0,0-2.11,12.44q0,8.16,4.52,12t13.54,3.86a32.16,32.16,0,0,0,10.26-1.68,27.71,27.71,0,0,0,8.81-4.73L683.9,545a47.2,47.2,0,0,1-16.08,7.86A67.48,67.48,0,0,1,650.27,555.16Z"/><path d="M171.86,659.52V450.58c6.94,1.36,13.83,1.67,19.87,4.09,20.68,8.29,41.08,17.28,61.52,26.16a5.09,5.09,0,0,1,2.46,3.76c.06,30.41.42,60.87-6.83,90.71-9,37.24-32.26,62.75-66.18,79.25C179.38,656.17,176,657.63,171.86,659.52Zm24-41.94a90.59,90.59,0,0,0,28.5-43.11c5.94-19,6.89-38.64,7.34-58.35.44-19.28.53-19.32-17-27.25-6-2.73-12.18-5.17-18.83-8Z"/><path d="M171.91,440.82V389.56a38.76,38.76,0,0,1,3.36,3.24q9,11.18,17.89,22.45c.91,1.15,2.35,2.66,2.16,3.77-1.14,6.55,3.42,7,7.86,8.23,29.92,8.31,56.88,23.16,83.63,38.38a5.6,5.6,0,0,1,2.47,4.29q-5.07,51.79-10.5,103.55a30.22,30.22,0,0,1-1.31,6.62c-1.6,4.61-1.65,8.33,3.93,10.21a5.22,5.22,0,0,1,2.45,2.89c4.23,10.6,8.35,21.24,13.2,33.64L251.5,600.56c3.23-13.14,7.93-25.5,9.05-38.17,2.47-27.8,3.16-55.77,4.38-83.67a5.45,5.45,0,0,0-2.64-4.16c-22.49-9.8-44.93-19.73-67.7-28.86C187.61,442.9,179.7,442.42,171.91,440.82Z"/><path d="M162.11,388.61v52.68c-32.8,3.06-60.49,19.5-89.32,32.84-1.62.75-3.62,3-3.63,4.6-.16,30.77-.45,61.6,5.62,92,1.93,9.7,5.23,19.12,8.17,29.62L37.09,626.82c3.61-9.35,6.58-17.3,9.76-25.17,2.13-5.26,3.07-11.34,9.49-13.84.77-.3,1.07-2.87.9-4.31-3.5-30.35-7.14-60.68-10.64-91-.8-6.89-.9-13.87-1.83-20.74-.5-3.64.74-5.33,3.77-7,27.7-15.45,55.5-30.65,86.52-38.72,1.35-.35,2.63-2.08,3.36-3.48,1.57-3,2.21-6.64,4.2-9.31C148.52,405.25,154.88,397.65,162.11,388.61Z"/><path d="M83.8,639.86c-3.21,0-6.46.36-9.61-.06a260.61,260.61,0,0,1-31-5.74l44.1-25.48a31.24,31.24,0,0,1,2.15,2.9c17.06,30,44.32,47.1,75.39,59.26,1.65.64,4.08.18,5.84-.52,31-12.45,58-29.85,74.71-60.09.27-.49.62-.93,1.12-1.65l44,25.4,0,1.27c-6.1,1-12.16,2.28-18.29,2.75-7.09.53-14,4.51-21.41,1-.66-.32-2.55,1.14-3.44,2.16-20.93,23.67-47.41,38.83-76.58,49.77a12.35,12.35,0,0,1-7.94-.16c-30.09-11.29-57.16-27.24-78.3-52.12Z"/><path class="cls-1" d="M248.88,575.3c7.25-29.84,6.89-60.3,6.83-90.71a5.09,5.09,0,0,0-2.46-3.76C232.81,472,212.41,463,191.73,454.67c-6-2.42-12.93-2.73-19.87-4.09V659.52c4.14-1.89,7.52-3.35,10.84-5C216.62,638.05,239.83,612.54,248.88,575.3Zm-53-94.41c6.65,2.81,12.8,5.25,18.83,8,17.54,7.93,17.45,8,17,27.25-.45,19.71-1.4,39.35-7.34,58.35a90.59,90.59,0,0,1-28.5,43.11Z"/><path class="cls-2" d="M158,657.71A40.39,40.39,0,0,0,162.4,659c0-5.19-.51-9.76.11-14.16,1.16-8.27-1.87-12.84-9.38-17-25.39-14.09-40.56-36.11-46.27-64.55-.33-1.65-6.22-48.05-4.65-63.74.11-1.1.77-2.79,1.65-3.21,9.41-4.47,44.73-20.13,55.27-24.79a5.06,5.06,0,0,0,3-4.57c.06-6.74.29-6.44.29-16.26-5.48.88-10.28,1.34-14.94,2.44-23.77,5.6-45,17.41-66.84,27.75-1.3.61-2.38,3.29-2.31,4.95.91,23.41.91,46.93,3.36,70.19C86.82,604.79,113.21,638.36,158,657.71Z"/><path d="M69.16,478.73c-.16,30.77-.45,61.6,5.62,92a194.6,194.6,0,0,0,11.61,35.76h0c1.28,2.06,2.75,4.47,3.07,5,17.06,30,44.32,47.1,75.39,59.26,1.65.64,4.08.18,5.84-.52,31-12.45,58-29.85,74.71-60.09.19-.34,1.5-3.07,2.45-4.93h0c4.27-9.46,11.58-30.14,12.7-42.81,2.47-27.8,3.16-55.77,4.38-83.67a5.45,5.45,0,0,0-2.64-4.16c-22.49-9.8-44.93-19.73-67.7-28.86-6.42-2.58-17.81-3.39-25.65-4.75-32.8,3.07-67.32,19.84-96.15,33.18C71.17,474.88,69.17,477.15,69.16,478.73Zm107-28.15c6.95,1.36,9.57,1.67,15.61,4.09,20.68,8.29,41.08,17.28,61.52,26.16a5.09,5.09,0,0,1,2.46,3.76c.06,30.41.42,60.87-6.83,90.71-9,37.24-32.26,62.75-66.18,79.25-3.32,1.62-4.95,2.28-9.09,4.17C173.61,588.68,176.12,520.64,176.12,450.58ZM80.63,480.94c21.83-10.34,43.07-22.15,66.84-27.75,4.66-1.1,7.43-1.25,12.91-2.13,0,9.82,0,10.94,0,17.68,0,2-4.41,4.26-6.22,5.06-10.53,4.66-40.84,18.1-50.25,22.57-.88.42-1.54,2.11-1.65,3.21-1.57,15.69,4.32,62.09,4.65,63.74,5.71,28.44,20.12,49,45.09,63.88,5.26,3.13,9.82,7.39,9.52,12.79-.24,4.45-.1,18.64-.53,18.64a16.73,16.73,0,0,1-3-.92c-44.77-19.35-71.16-52.92-76.3-101.63-2.45-23.26-2.45-46.78-3.36-70.19C78.25,484.23,79.33,481.55,80.63,480.94Z"/><path d="M224.35,574.47c5.94-19,6.89-38.64,7.34-58.35.44-19.28.53-19.32-17-27.25-6-2.73-12.18-5.17-18.83-8V617.58A90.59,90.59,0,0,0,224.35,574.47Z"/><path d="M167,440.58c.62.13,1.28.25,2,.37h0c-.56-4.1-1.29-8.34-2.06-12.7C166.08,434.85,165.85,439.64,167,440.58Z"/><path d="M168.94,441c7.84,1.36,19.23,2.17,25.65,4.75,22.77,9.13,45.21,19.06,67.7,28.86a5.45,5.45,0,0,1,2.64,4.16c-1.22,27.9-1.91,55.87-4.38,83.67-1.12,12.67-8.43,33.35-12.7,42.81.42-.81.76-1.46.91-1.68A111.78,111.78,0,0,1,259.88,611c11.86,4.92,25.11,8.9,37.17,15.85-4.85-12.4-9-23-13.2-33.64a5.22,5.22,0,0,0-2.45-2.89c-5.58-1.88-5.53-5.6-3.93-10.21a30.22,30.22,0,0,0,1.31-6.62q5.36-51.76,10.5-103.55a5.6,5.6,0,0,0-2.47-4.29c-26.75-15.22-53.71-30.07-83.63-38.38-4.44-1.23-9-1.68-7.86-8.23.19-1.11-1.25-2.62-2.16-3.77Q184.28,404,175.27,392.8a38.76,38.76,0,0,0-3.36-3.24c-.78,11.57-3.7,27.66-5,38.69.77,4.36,1.5,8.6,2.06,12.7Z"/><path d="M84.47,603.52c.34.46,1.09,1.62,1.92,2.93h0a194.6,194.6,0,0,1-11.61-35.76c-6.07-30.36-5.78-61.19-5.62-92,0-1.58,2-3.85,3.63-4.6C101.62,460.79,136.14,444,168.94,441c-.68-.12-1.34-.24-2-.37-1.13-.94-.9-5.73-.1-12.33-2.21-12.44-4.77-25.8-4.77-39.64-7.23,9-13.59,16.64-19.49,24.59-2,2.67-2.63,6.29-4.2,9.31-.73,1.4-2,3.13-3.36,3.48-31,8.07-58.82,23.27-86.52,38.72-3,1.69-4.27,3.38-3.77,7,.93,6.87,1,13.85,1.83,20.74,3.5,30.35,7.14,60.68,10.64,91,.17,1.44-.13,4-.9,4.31-6.42,2.5-7.36,8.58-9.49,13.84-3.18,7.87-6.15,15.82-9.76,25.17A216.66,216.66,0,0,1,79.3,608.57C81.24,606.82,83,605.12,84.47,603.52Z"/><path d="M247.85,605.2c-.95,1.86-2.26,4.59-2.45,4.93-16.69,30.24-43.72,47.64-74.71,60.09-1.76.7-4.19,1.16-5.84.52-31.07-12.16-58.33-29.23-75.39-59.26-.32-.56-1.79-3-3.07-5-2.27.64-4.64,1.35-7.09,2.12-9.54,8.57-23.94,18.47-36.09,25.49a260.61,260.61,0,0,0,31,5.74c3.15.42,6.4.06,9.61.06.24-.44.49-.88.73-1.33,21.14,24.88,48.21,40.83,78.3,52.12a12.35,12.35,0,0,0,7.94.16c29.17-10.94,55.65-26.1,76.58-49.77.89-1,2.78-2.48,3.44-2.16,7.37,3.53,14.32-.45,21.41-1,6.13-.47,12.19-1.8,18.29-2.75,0-.42,0-.85,0-1.27-10.79-6.23-20.36-15.18-30.65-22.9A104.48,104.48,0,0,1,247.85,605.2Z"/><path d="M247.85,605.2a104.48,104.48,0,0,0,12,5.78,111.78,111.78,0,0,0-11.12-7.46C248.61,603.74,248.27,604.39,247.85,605.2Z"/><path d="M84.47,603.52c-1.48,1.6-3.23,3.3-5.17,5.05,2.45-.77,4.82-1.48,7.09-2.12C85.56,605.14,84.81,604,84.47,603.52Z"/></svg>